<svg width="40" height="40" viewBox="0 0 40 40" fill="none" xmlns="http://www.w3.org/2000/svg">
<path d="M11.1515 27.1515C10.6829 27.6202 10.6829 28.3798 11.1515 28.8485C11.6201 29.3171 12.3799 29.3171 12.8486 28.8485L11.1515 27.1515ZM20.8485 20.8485C21.3172 20.3798 21.3172 19.6202 20.8485 19.1515C20.3799 18.6829 19.6202 18.6829 19.1516 19.1515L20.8485 20.8485ZM19.1516 19.1515C18.6829 19.6202 18.6829 20.3798 19.1516 20.8485C19.6202 21.3171 20.3799 21.3171 20.8485 20.8485L19.1516 19.1515ZM28.8485 12.8485C29.3172 12.3799 29.3172 11.6201 28.8485 11.1515C28.3799 10.6828 27.6202 10.6828 27.1516 11.1515L28.8485 12.8485ZM20.8485 19.1515C20.3799 18.6829 19.6202 18.6829 19.1516 19.1515C18.6829 19.6202 18.6829 20.3798 19.1516 20.8485L20.8485 19.1515ZM27.1516 28.8485C27.6202 29.3171 28.3799 29.3171 28.8485 28.8485C29.3172 28.3798 29.3172 27.6202 28.8485 27.1515L27.1516 28.8485ZM19.1516 20.8485C19.6202 21.3171 20.3799 21.3171 20.8485 20.8485C21.3172 20.3798 21.3172 19.6202 20.8485 19.1515L19.1516 20.8485ZM12.8486 11.1515C12.3799 10.6828 11.6201 10.6828 11.1515 11.1515C10.6829 11.6201 10.6829 12.3799 11.1515 12.8485L12.8486 11.1515ZM12.8486 28.8485L20.8485 20.8485L19.1516 19.1515L11.1515 27.1515L12.8486 28.8485ZM20.8485 20.8485L28.8485 12.8485L27.1516 11.1515L19.1516 19.1515L20.8485 20.8485ZM19.1516 20.8485L27.1516 28.8485L28.8485 27.1515L20.8485 19.1515L19.1516 20.8485ZM20.8485 19.1515L12.8486 11.1515L11.1515 12.8485L19.1516 20.8485L20.8485 19.1515Z" fill="white"/>
</svg>
