<svg width="18" height="18" viewBox="0 0 18 18" fill="none" xmlns="http://www.w3.org/2000/svg">
<path d="M0.325108 15.1252C-0.108369 15.5586 -0.108369 16.2613 0.325108 16.6948C0.758585 17.1283 1.46141 17.1283 1.89488 16.6948L0.325108 15.1252ZM9.29484 9.29484C9.72833 8.86135 9.72833 8.15864 9.29484 7.72515C8.86135 7.29166 8.15864 7.29166 7.72515 7.72515L9.29484 9.29484ZM7.72515 7.72515C7.29166 8.15864 7.29166 8.86135 7.72515 9.29484C8.15864 9.72833 8.86135 9.72833 9.29484 9.29484L7.72515 7.72515ZM16.6948 1.89489C17.1283 1.46141 17.1283 0.758585 16.6948 0.325108C16.2613 -0.108369 15.5586 -0.108369 15.1252 0.325108L16.6948 1.89489ZM9.29484 7.72515C8.86135 7.29166 8.15864 7.29166 7.72515 7.72515C7.29166 8.15864 7.29166 8.86135 7.72515 9.29484L9.29484 7.72515ZM15.1252 16.6948C15.5586 17.1283 16.2613 17.1283 16.6948 16.6948C17.1283 16.2613 17.1283 15.5586 16.6948 15.1252L15.1252 16.6948ZM7.72515 9.29484C8.15864 9.72833 8.86135 9.72833 9.29484 9.29484C9.72833 8.86135 9.72833 8.15864 9.29484 7.72515L7.72515 9.29484ZM1.89488 0.325108C1.46141 -0.108369 0.758585 -0.108369 0.325108 0.325108C-0.108369 0.758585 -0.108369 1.46141 0.325108 1.89489L1.89488 0.325108ZM1.89488 16.6948L9.29484 9.29484L7.72515 7.72515L0.325108 15.1252L1.89488 16.6948ZM9.29484 9.29484L16.6948 1.89489L15.1252 0.325108L7.72515 7.72515L9.29484 9.29484ZM7.72515 9.29484L15.1252 16.6948L16.6948 15.1252L9.29484 7.72515L7.72515 9.29484ZM9.29484 7.72515L1.89488 0.325108L0.325108 1.89489L7.72515 9.29484L9.29484 7.72515Z" fill="white"/>
</svg>
