<svg width="40" height="40" viewBox="0 0 40 40" fill="none" xmlns="http://www.w3.org/2000/svg">
<path fill-rule="evenodd" clip-rule="evenodd" d="M28.75 21.25H15.5175L20.67 26.4C21.1575 26.8875 21.1575 27.6875 20.67 28.175C20.1813 28.6625 19.39 28.6625 18.9013 28.175L11.83 21.1C11.5312 20.8 11.4375 20.3875 11.5062 20C11.4375 19.6125 11.5312 19.2 11.83 18.9L18.9013 11.825C19.39 11.3375 20.1813 11.3375 20.67 11.825C21.1575 12.325 21.1575 13.1125 20.67 13.6L15.5175 18.75H28.75C29.44 18.75 30 19.3125 30 20C30 20.6875 29.44 21.25 28.75 21.25ZM20 0C8.955 0 0 8.95 0 20C0 31.05 8.955 40 20 40C31.045 40 40 31.05 40 20C40 8.95 31.045 0 20 0Z" fill="#212121"/>
</svg>
