<svg width="24" height="24" viewBox="0 0 24 24" fill="none" xmlns="http://www.w3.org/2000/svg">
<path d="M21.6 0H7.2C5.88 0 4.8 1.08 4.8 2.4V16.8C4.8 18.12 5.88 19.2 7.2 19.2H21.6C22.92 19.2 24 18.12 24 16.8V2.4C24 1.08 22.92 0 21.6 0ZM18 6H15.6V12.444C15.6 13.968 14.52 15.372 13.008 15.564C10.98 15.84 9.276 14.064 9.648 12.024C9.888 10.704 11.064 9.684 12.408 9.6C13.164 9.552 13.848 9.792 14.4 10.212V4.8C14.4 4.14 14.94 3.6 15.6 3.6H18C18.66 3.6 19.2 4.14 19.2 4.8C19.2 5.46 18.66 6 18 6ZM1.2 4.8C0.54 4.8 0 5.34 0 6V21.6C0 22.92 1.08 24 2.4 24H18C18.66 24 19.2 23.46 19.2 22.8C19.2 22.14 18.66 21.6 18 21.6H3.6C2.94 21.6 2.4 21.06 2.4 20.4V6C2.4 5.34 1.86 4.8 1.2 4.8Z" fill="#CDDC39"/>
</svg>
