<svg width="24" height="23" viewBox="0 0 24 23" fill="none" xmlns="http://www.w3.org/2000/svg">
<path d="M23.9957 6.97384C23.9259 4.53874 22.8131 2.53726 21.239 1.31365C19.2142 -0.261935 16.4226 -0.551012 14.1023 1.16801C13.3365 1.73734 12.6197 2.52513 12.0001 3.56007C11.3805 2.52513 10.6648 1.73734 9.89793 1.16911C7.57758 -0.551012 4.78705 -0.261935 2.76124 1.31475C1.18597 2.53837 0.074343 4.53985 0.00452523 6.97494C-0.0336564 8.26807 0.162706 9.71125 0.864157 11.171C1.96597 13.4626 7.14231 18.5579 11.9597 22.9581L11.9979 23L12.0001 22.9978L12.0023 23L12.0416 22.9581C16.8579 18.559 22.0331 13.4637 23.136 11.171C23.8386 9.71125 24.0328 8.26696 23.9957 6.97384Z" fill="#CDDC39"/>
</svg>
