<svg width="32" height="31" viewBox="0 0 32 31" fill="none" xmlns="http://www.w3.org/2000/svg">
<g filter="url(#filter0_d_578_8)">
<mask id="path-1-inside-1_578_8" fill="white">
<path d="M27.9957 6.97384C27.9259 4.53874 26.8131 2.53726 25.239 1.31365C23.2142 -0.261935 20.4226 -0.551012 18.1023 1.16801C17.3365 1.73734 16.6197 2.52513 16.0001 3.56007C15.3805 2.52513 14.6648 1.73734 13.8979 1.16911C11.5776 -0.551012 8.78705 -0.261935 6.76124 1.31475C5.18597 2.53837 4.07434 4.53985 4.00453 6.97494C3.96634 8.26807 4.16271 9.71125 4.86416 11.171C5.96597 13.4626 11.1423 18.5579 15.9597 22.9581L15.9979 23L16.0001 22.9978L16.0023 23L16.0416 22.9581C20.8579 18.559 26.0331 13.4637 27.136 11.171C27.8386 9.71125 28.0328 8.26696 27.9957 6.97384Z"/>
</mask>
<path d="M27.9957 6.97384C27.9259 4.53874 26.8131 2.53726 25.239 1.31365C23.2142 -0.261935 20.4226 -0.551012 18.1023 1.16801C17.3365 1.73734 16.6197 2.52513 16.0001 3.56007C15.3805 2.52513 14.6648 1.73734 13.8979 1.16911C11.5776 -0.551012 8.78705 -0.261935 6.76124 1.31475C5.18597 2.53837 4.07434 4.53985 4.00453 6.97494C3.96634 8.26807 4.16271 9.71125 4.86416 11.171C5.96597 13.4626 11.1423 18.5579 15.9597 22.9581L15.9979 23L16.0001 22.9978L16.0023 23L16.0416 22.9581C20.8579 18.559 26.0331 13.4637 27.136 11.171C27.8386 9.71125 28.0328 8.26696 27.9957 6.97384Z" fill="#CDDC39"/>
<path d="M27.9957 6.97384L-81.9591 10.1264L-81.9591 10.1277L27.9957 6.97384ZM25.239 1.31365L-42.316 88.1257L-42.2925 88.144L-42.269 88.1622L25.239 1.31365ZM18.1023 1.16801L-47.3787 -87.2189L-47.4523 -87.1643L-47.5259 -87.1096L18.1023 1.16801ZM16.0001 3.56007L-78.3777 60.0652L16.0001 217.7L110.378 60.0652L16.0001 3.56007ZM13.8979 1.16911L-51.6102 89.5359L-51.5991 89.5441L-51.5881 89.5523L13.8979 1.16911ZM6.76124 1.31475L74.2401 88.186L74.2815 88.1538L74.323 88.1215L6.76124 1.31475ZM4.00453 6.97494L113.957 10.2214L113.958 10.1745L113.959 10.1275L4.00453 6.97494ZM4.86416 11.171L-94.2827 58.8144L-94.2777 58.8248L-94.2727 58.8352L4.86416 11.171ZM15.9597 22.9581L97.2898 -51.1056L93.8817 -54.848L90.1444 -58.2616L15.9597 22.9581ZM15.9979 23L-65.3321 97.0637L12.7364 182.791L94.2381 100.321L15.9979 23ZM16.0001 22.9978L94.2218 -54.3415L15.9814 -133.475L-62.24 -54.3228L16.0001 22.9978ZM16.0023 23L-62.2194 100.339L18.1455 181.621L96.285 98.1976L16.0023 23ZM16.0416 22.9581L-58.1422 -58.2625L-61.3091 -55.3699L-64.2412 -52.2396L16.0416 22.9581ZM27.136 11.171L-71.9819 -36.5326L-71.9866 -36.5228L-71.9914 -36.513L27.136 11.171ZM137.95 3.82127C136.947 -31.1775 120.473 -63.9831 92.7469 -85.5349L-42.269 88.1622C-66.8469 69.0576 -81.0953 40.255 -81.9591 10.1264L137.95 3.82127ZM92.7939 -85.4984C56.5389 -113.711 -0.761831 -121.755 -47.3787 -87.2189L83.5832 89.5549C41.6071 120.653 -10.1104 113.187 -42.316 88.1257L92.7939 -85.4984ZM-47.5259 -87.1096C-61.057 -77.0502 -71.1534 -65.0115 -78.3777 -52.9451L110.378 60.0652C104.393 70.0618 95.7299 80.5249 83.7305 89.4456L-47.5259 -87.1096ZM110.378 -52.9451C103.19 -64.9511 93.0734 -77.0711 79.3839 -87.214L-51.5881 89.5523C-63.7437 80.5458 -72.4288 70.0014 -78.3777 60.0652L110.378 -52.9451ZM79.406 -87.1977C32.769 -121.771 -24.5528 -113.704 -60.8005 -85.492L74.323 88.1215C42.1269 113.18 -9.61385 120.669 -51.6102 89.5359L79.406 -87.1977ZM-60.7176 -85.5565C-88.4979 -63.9776 -104.948 -31.1435 -105.95 3.82237L113.959 10.1275C113.096 40.2232 98.8698 69.0544 74.2401 88.186L-60.7176 -85.5565ZM-105.948 3.72843C-106.392 18.7884 -104.101 38.3827 -94.2827 58.8144L104.011 -36.4725C112.426 -18.9602 114.325 -2.25225 113.957 10.2214L-105.948 3.72843ZM-94.2727 58.8352C-87.9902 71.9021 -80.366 81.0558 -78.5224 83.2942C-75.3223 87.1796 -72.2915 90.4217 -70.1819 92.6105C-65.8773 97.0765 -61.4877 101.198 -58.225 104.178L90.1444 -58.2616C88.5897 -59.6816 87.9825 -60.3083 88.2191 -60.0628C88.2947 -59.9843 89.5237 -58.7207 91.2929 -56.5727C92.2016 -55.4694 93.7841 -53.4914 95.6523 -50.8155C97.2772 -48.4882 100.642 -43.4803 104.001 -36.4933L-94.2727 58.8352ZM-65.3703 97.0217L-65.3321 97.0637L97.328 -51.0637L97.2898 -51.1056L-65.3703 97.0217ZM94.2381 100.321L94.2402 100.318L-62.24 -54.3228L-62.2422 -54.3206L94.2381 100.321ZM-62.2216 100.337L-62.2194 100.339L94.224 -54.3393L94.2218 -54.3415L-62.2216 100.337ZM96.285 98.1976L96.3243 98.1557L-64.2412 -52.2396L-64.2804 -52.1976L96.285 98.1976ZM90.2253 104.179C93.4914 101.195 97.8817 97.0734 102.187 92.606C104.297 90.4165 107.327 87.1748 110.526 83.2902C112.372 81.0487 119.986 71.9052 126.263 58.8549L-71.9914 -36.513C-68.6357 -43.4889 -65.2762 -48.4895 -63.6524 -50.8152C-61.7861 -53.4884 -60.2051 -55.4647 -59.2969 -56.5675C-57.5288 -58.7144 -56.3006 -59.9774 -56.2242 -60.0567C-55.9865 -60.3034 -56.592 -59.6784 -58.1422 -58.2625L90.2253 104.179ZM126.254 58.8746C136.15 38.3137 138.377 18.6773 137.95 3.82001L-81.9591 10.1277C-82.3111 -2.14335 -80.4724 -18.8912 -71.9819 -36.5326L126.254 58.8746Z" fill="#CDDC39" mask="url(#path-1-inside-1_578_8)"/>
</g>
<defs>
<filter id="filter0_d_578_8" x="0" y="0" width="32" height="31" filterUnits="userSpaceOnUse" color-interpolation-filters="sRGB">
<feFlood flood-opacity="0" result="BackgroundImageFix"/>
<feColorMatrix in="SourceAlpha" type="matrix" values="0 0 0 0 0 0 0 0 0 0 0 0 0 0 0 0 0 0 127 0" result="hardAlpha"/>
<feOffset dy="4"/>
<feGaussianBlur stdDeviation="2"/>
<feComposite in2="hardAlpha" operator="out"/>
<feColorMatrix type="matrix" values="0 0 0 0 0 0 0 0 0 0 0 0 0 0 0 0 0 0 0.25 0"/>
<feBlend mode="normal" in2="BackgroundImageFix" result="effect1_dropShadow_578_8"/>
<feBlend mode="normal" in="SourceGraphic" in2="effect1_dropShadow_578_8" result="shape"/>
</filter>
</defs>
</svg>
