<svg width="50" height="50" viewBox="0 0 50 50" fill="none" xmlns="http://www.w3.org/2000/svg">
<path d="M24.9999 0.000260658C20.0554 0.000260658 15.2219 1.46648 11.1107 4.2135C6.99949 6.96052 3.79519 10.865 1.90301 15.4331C0.0108321 20.0012 -0.484249 25.0279 0.480377 29.8774C1.445 34.7269 3.82601 39.1814 7.3223 42.6777C10.8186 46.174 15.2731 48.555 20.1226 49.5196C24.9721 50.4842 29.9988 49.9892 34.5669 48.097C39.135 46.2048 43.0395 43.0005 45.7865 38.8893C48.5335 34.7781 49.9997 29.9446 49.9997 25.0001C50.0148 21.7129 49.3784 18.4552 48.1274 15.4153C46.8764 12.3754 45.0354 9.61346 42.711 7.28901C40.3865 4.96455 37.6246 3.12365 34.5847 1.87262C31.5448 0.621586 28.2871 -0.0147842 24.9999 0.000260658ZM21.5908 32.9546C21.5908 33.5574 21.3514 34.1355 20.9251 34.5617C20.4989 34.9879 19.9208 35.2273 19.3181 35.2273C18.7153 35.2273 18.1373 34.9879 17.711 34.5617C17.2848 34.1355 17.0454 33.5574 17.0454 32.9546V17.0456C17.0454 16.4429 17.2848 15.8648 17.711 15.4386C18.1373 15.0124 18.7153 14.7729 19.3181 14.7729C19.9119 14.8006 20.4741 15.0489 20.8944 15.4693C21.3148 15.8896 21.5631 16.4518 21.5908 17.0456V32.9546ZM32.9544 32.9546C32.9544 33.5574 32.7149 34.1355 32.2887 34.5617C31.8625 34.9879 31.2844 35.2273 30.6817 35.2273C30.0789 35.2273 29.5008 34.9879 29.0746 34.5617C28.6484 34.1355 28.4089 33.5574 28.4089 32.9546V17.0456C28.4089 16.4429 28.6484 15.8648 29.0746 15.4386C29.5008 15.0124 30.0789 14.7729 30.6817 14.7729C31.2755 14.8006 31.8376 15.0489 32.258 15.4693C32.6784 15.8896 32.9267 16.4518 32.9544 17.0456V32.9546Z" fill="#0F172A"/>
</svg>
