<svg width="50" height="50" viewBox="0 0 50 50" fill="none" xmlns="http://www.w3.org/2000/svg">
<path d="M25 0C11.1938 0 0 11.1938 0 25C0 38.8061 11.1938 50 25 50C38.8061 50 50 38.8061 50 25C50 11.1938 38.8061 0 25 0ZM34.2834 25.283L20.2209 33.6761C20.1202 33.7372 19.992 33.7402 19.8883 33.6791C19.7876 33.6211 19.7235 33.5129 19.7235 33.3923V24.9991V16.606C19.7235 16.487 19.7876 16.3771 19.8883 16.319C19.992 16.2596 20.1202 16.2626 20.2209 16.3221L34.2834 24.7168C34.3841 24.774 34.4437 24.8846 34.4437 24.999C34.4437 25.1159 34.3842 25.2243 34.2834 25.283Z" fill="#0F172A"/>
</svg>
