<svg width="19" height="16" viewBox="0 0 19 16" fill="none" xmlns="http://www.w3.org/2000/svg">
<path fill-rule="evenodd" clip-rule="evenodd" d="M0.538 0.113C0.700243 0.0286116 0.882521 -0.00966997 1.06501 0.00231934C1.24749 0.0143086 1.42319 0.0761101 1.573 0.181L11.573 7.181C11.7046 7.27322 11.8121 7.3958 11.8863 7.53837C11.9605 7.68094 11.9992 7.83928 11.9992 8C11.9992 8.16072 11.9605 8.31906 11.8863 8.46163C11.8121 8.6042 11.7046 8.72678 11.573 8.819L1.573 15.819C1.42316 15.9238 1.24746 15.9854 1.06502 15.9973C0.882568 16.0092 0.700355 15.9709 0.538186 15.8864C0.376017 15.802 0.2401 15.6747 0.145213 15.5184C0.0503262 15.3621 0.00010152 15.1828 0 15V1C-2.19627e-05 0.817087 0.0501249 0.637673 0.144984 0.481279C0.239842 0.324886 0.375779 0.197506 0.538 0.113ZM14 1.8C14 1.32261 14.1896 0.864773 14.5272 0.527208C14.8648 0.189642 15.3226 0 15.8 0H17.2C17.4364 0 17.6704 0.0465583 17.8888 0.137017C18.1072 0.227475 18.3056 0.360062 18.4728 0.527208C18.6399 0.694353 18.7725 0.892784 18.863 1.11117C18.9534 1.32956 19 1.56362 19 1.8V14.2C19 14.4364 18.9534 14.6704 18.863 14.8888C18.7725 15.1072 18.6399 15.3056 18.4728 15.4728C18.3056 15.6399 18.1072 15.7725 17.8888 15.863C17.6704 15.9534 17.4364 16 17.2 16H15.8C15.3226 16 14.8648 15.8104 14.5272 15.4728C14.1896 15.1352 14 14.6774 14 14.2V1.8Z" fill="#0F172A"/>
</svg>
