<svg width="20" height="20" viewBox="0 0 20 20" fill="none" xmlns="http://www.w3.org/2000/svg">
<path d="M19.9964 6.06421C19.9382 3.94673 19.0109 2.20632 17.6991 1.1423C16.0119 -0.227769 13.6855 -0.479141 11.7519 1.01566C11.1137 1.51073 10.5164 2.19576 10.0001 3.09571C9.48372 2.19576 8.88736 1.51073 8.24827 1.01662C6.31465 -0.479141 3.9892 -0.227769 2.30103 1.14326C0.988311 2.20728 0.0619525 3.94769 0.00377102 6.06517C-0.028047 7.18962 0.135588 8.44456 0.720131 9.7139C1.63831 11.7066 5.95192 16.1373 9.96645 19.9635L9.99826 20L10.0001 19.9981L10.0019 20L10.0346 19.9635C14.0482 16.1383 18.3609 11.7076 19.28 9.7139C19.8655 8.44456 20.0273 7.18866 19.9964 6.06421Z" fill="#1C274C"/>
</svg>
