<svg width="19" height="16" viewBox="0 0 19 16" fill="none" xmlns="http://www.w3.org/2000/svg">
<path d="M0 1.80026C0 1.32287 0.189642 0.865032 0.527208 0.527467C0.864773 0.189901 1.32261 0.000258933 1.8 0.000258933H3.2C3.43638 0.000258933 3.67044 0.0468172 3.88883 0.137276C4.10722 0.227734 4.30565 0.360321 4.47279 0.527467C4.63994 0.694612 4.77252 0.893043 4.86298 1.11143C4.95344 1.32981 5 1.56388 5 1.80026V14.2003C5 14.6776 4.81036 15.1355 4.47279 15.4731C4.13523 15.8106 3.67739 16.0003 3.2 16.0003H1.8C1.32261 16.0003 0.864773 15.8106 0.527208 15.4731C0.189642 15.1355 0 14.6776 0 14.2003V1.80026ZM18.462 0.113259C18.6242 0.197764 18.7602 0.325145 18.855 0.481538C18.9499 0.637932 19 0.817346 19 1.00026V15.0003C19.0001 15.1832 18.95 15.3626 18.8552 15.519C18.7604 15.6755 18.6245 15.8029 18.4623 15.8874C18.3001 15.972 18.1178 16.0105 17.9352 15.9986C17.7527 15.9868 17.5769 15.9251 17.427 15.8203L7.427 8.82026C7.29497 8.7281 7.18715 8.60543 7.11269 8.46266C7.03824 8.3199 6.99936 8.16127 6.99936 8.00026C6.99936 7.83925 7.03824 7.68062 7.11269 7.53785C7.18715 7.39509 7.29497 7.27242 7.427 7.18026L17.427 0.180259C17.5769 0.0755259 17.7527 0.0139019 17.9351 0.00208903C18.1176 -0.00972387 18.2998 0.0287267 18.462 0.113259Z" fill="#0F172A"/>
</svg>
