<svg width="40" height="40" viewBox="0 0 40 40" fill="none" xmlns="http://www.w3.org/2000/svg">
<g clip-path="url(#clip0_432_11)">
<path d="M20 0.00109863C8.95546 0.00109863 0 8.9548 0 20.0002C0 31.0456 8.95458 39.9993 20 39.9993C31.0463 39.9993 40 31.0456 40 20.0002C40 8.9548 31.0463 0.00109863 20 0.00109863ZM20 5.98107C23.6546 5.98107 26.616 8.94338 26.616 12.5962C26.616 16.2499 23.6546 19.2113 20 19.2113C16.3472 19.2113 13.3858 16.2499 13.3858 12.5962C13.3858 8.94338 16.3472 5.98107 20 5.98107ZM19.9956 34.7705C16.3507 34.7705 13.0124 33.4431 10.4375 31.2459C9.81024 30.7109 9.4483 29.9264 9.4483 29.1033C9.4483 25.3986 12.4466 22.4337 16.1522 22.4337H23.8496C27.556 22.4337 30.5429 25.3986 30.5429 29.1033C30.5429 29.9273 30.1827 30.7101 29.5546 31.2451C26.9806 33.4431 23.6414 34.7705 19.9956 34.7705Z" fill="black"/>
</g>
<defs>
<clipPath id="clip0_432_11">
<rect width="40" height="40" fill="white"/>
</clipPath>
</defs>
</svg>
