<svg width="50" height="50" viewBox="0 0 50 50" fill="none" xmlns="http://www.w3.org/2000/svg">
<path d="M25 0.00109863C11.1943 0.00109863 0 11.1932 0 25C0 38.8068 11.1932 49.9989 25 49.9989C38.8079 49.9989 50 38.8068 50 25C50 11.1932 38.8079 0.00109863 25 0.00109863ZM25 7.47606C29.5682 7.47606 33.27 11.179 33.27 15.745C33.27 20.3121 29.5682 24.0139 25 24.0139C20.434 24.0139 16.7322 20.3121 16.7322 15.745C16.7322 11.179 20.434 7.47606 25 7.47606ZM24.9945 43.4628C20.4384 43.4628 16.2655 41.8036 13.0469 39.0571C12.2628 38.3884 11.8104 37.4078 11.8104 36.3788C11.8104 31.748 15.5583 28.0418 20.1902 28.0418H29.812C34.445 28.0418 38.1786 31.748 38.1786 36.3788C38.1786 37.4089 37.7284 38.3873 36.9432 39.0561C33.7257 41.8036 29.5517 43.4628 24.9945 43.4628Z" fill="black"/>
</svg>
