<svg width="40" height="40" viewBox="0 0 40 40" fill="none" xmlns="http://www.w3.org/2000/svg">
<path fill-rule="evenodd" clip-rule="evenodd" d="M11.25 18.75H24.4825L19.33 13.6C18.8425 13.1125 18.8425 12.3125 19.33 11.825C19.8187 11.3375 20.61 11.3375 21.0987 11.825L28.17 18.9C28.4688 19.2 28.5625 19.6125 28.4938 20C28.5625 20.3875 28.4688 20.8 28.17 21.1L21.0987 28.175C20.61 28.6625 19.8187 28.6625 19.33 28.175C18.8425 27.675 18.8425 26.8875 19.33 26.4L24.4825 21.25H11.25C10.56 21.25 10 20.6875 10 20C10 19.3125 10.56 18.75 11.25 18.75ZM20 40C31.045 40 40 31.05 40 20C40 8.95 31.045 0 20 0C8.955 0 0 8.95 0 20C0 31.05 8.955 40 20 40Z" fill="#212121"/>
</svg>
