<svg width="24" height="24" viewBox="0 0 24 24" fill="none" xmlns="http://www.w3.org/2000/svg">
<path d="M1.56861 0.180532L1.70711 0.29621L23.7071 22.29C24.0976 22.6804 24.0976 23.3134 23.7071 23.7038C23.36 24.0508 22.8211 24.0894 22.4314 23.8195L22.2929 23.7038L18.261 19.6738C17.6874 19.8425 17.0871 19.9486 16.4678 19.9843L16 19.9977L9.414 19.9963L11.7105 22.2934C12.0576 22.6404 12.0962 23.1791 11.8262 23.5687L11.7105 23.7072C11.3634 24.0542 10.8245 24.0928 10.4348 23.8229L10.2963 23.7072L6.29289 19.7049C5.94576 19.3579 5.90719 18.8192 6.17718 18.4296L6.29289 18.2911L10.2963 14.2888C10.6868 13.8984 11.32 13.8984 11.7105 14.2888C12.0576 14.6359 12.0962 15.1746 11.8262 15.5642L11.7105 15.7027L9.414 17.9969L16 17.9983C16.1881 17.9983 16.3742 17.9896 16.5579 17.9727L5.25229 6.66624C3.32067 7.66277 2 9.6772 2 12C2 13.6386 2.65726 15.1238 3.7226 16.2064C3.8949 16.3831 4 16.6261 4 16.8936C4 17.4457 3.55228 17.8933 3 17.8933C2.72488 17.8933 2.47571 17.7822 2.29491 17.6025C0.875805 16.1639 0 14.1842 0 12C0 9.12893 1.51328 6.61121 3.78594 5.20051L0.292893 1.71002C-0.0976309 1.31961 -0.0976309 0.686624 0.292893 0.29621C0.640026 -0.0508244 1.17887 -0.0893841 1.56861 0.180532ZM21 6.09947C21.2455 6.09947 21.4703 6.18788 21.6443 6.33459L21.7869 6.47783C23.158 7.91342 24 9.85841 24 12C24 14.1548 23.1476 16.1105 21.7616 17.5486L20.3479 16.1335C21.3717 15.0576 22 13.6022 22 12C22 10.3565 21.3389 8.86745 20.268 7.78405C20.1043 7.60785 20 7.3657 20 7.09919C20 6.54706 20.4477 6.09947 21 6.09947ZM12.2929 0.29281C12.64 -0.0542242 13.1789 -0.0927834 13.5686 0.177132L13.7071 0.29281L17.7105 4.29508L17.8262 4.43353C18.0625 4.77446 18.0625 5.22951 17.8262 5.57043L17.7105 5.70889L13.814 9.60128L12.4 8.18768L14.588 6.0003H10.21L8.21 4.00087H14.588L12.2929 1.70662L12.1772 1.56817C11.9072 1.17854 11.9458 0.639845 12.2929 0.29281Z" fill="#0F172A"/>
</svg>
