<svg width="25" height="20" viewBox="0 0 25 20" fill="none" xmlns="http://www.w3.org/2000/svg">
<path fill-rule="evenodd" clip-rule="evenodd" d="M9.83735 18.6443C9.86594 18.6665 9.8886 18.6933 9.90392 18.723C9.91924 18.7526 9.92689 18.7845 9.92641 18.8167C9.92592 18.8488 9.9173 18.8806 9.90109 18.9099C9.88487 18.9392 9.86141 18.9655 9.83216 18.9872L8.67392 19.865C8.55413 19.955 8.39585 20.0034 8.23281 19.9999C8.06978 19.9963 7.91489 19.9412 7.80115 19.8461L2.77321 15.6105C2.53844 15.4127 2.53798 15.0935 2.7729 14.8967L7.82865 10.6615C8.06326 10.4651 8.45641 10.4555 8.70538 10.6391L9.87462 11.5013C9.99987 11.5936 10.0019 11.7438 9.87767 11.8377L6.6533 14.2799C6.6533 14.2799 14.7541 14.2959 17.6061 14.2879C20.4581 14.2799 22.7133 12.1793 22.7133 9.97713C22.7133 9.08094 21.8613 7.78574 21.8613 7.78574C21.7852 7.66275 21.8196 7.48212 21.9351 7.3846L23.2502 6.274C23.3669 6.17536 23.5208 6.19549 23.5926 6.31922C23.5926 6.31922 24.9997 8.6362 24.9997 9.86743C24.9997 13.3502 21.6753 16.1884 17.5867 16.1884C13.498 16.1884 6.75411 16.2134 6.75411 16.2134L9.83735 18.6443Z" fill="#1C274C"/>
<path fill-rule="evenodd" clip-rule="evenodd" d="M15.1623 1.35575C15.1338 1.33352 15.1111 1.30675 15.0958 1.2771C15.0805 1.24745 15.0728 1.21555 15.0733 1.18339C15.0738 1.15123 15.0824 1.1195 15.0986 1.09016C15.1148 1.06083 15.1383 1.03452 15.1675 1.01288L16.3258 0.135077C16.4456 0.0450577 16.6038 -0.00334725 16.7669 0.000180095C16.9299 0.00370744 17.0848 0.0588881 17.1985 0.15396L22.2265 4.38953C22.4612 4.5873 22.4617 4.90657 22.2268 5.10335L17.171 9.33855C16.9364 9.53495 16.5433 9.54452 16.2943 9.36091L15.1249 8.49876C14.9998 8.40646 14.9978 8.25627 15.1219 8.16235L18.3464 5.72014C18.3464 5.72014 10.2456 5.70412 7.39361 5.71219C4.54162 5.72014 2.28639 7.82073 2.28639 10.0229C2.28639 10.9191 3.13838 12.2143 3.13838 12.2143C3.21444 12.3373 3.18008 12.5179 3.06461 12.6155L1.7495 13.7261C1.63281 13.8247 1.47884 13.8046 1.40705 13.6808C1.40705 13.6808 -1.68957e-07 11.364 -1.50649e-07 10.1326C-9.88686e-08 6.64987 3.32442 3.81162 7.413 3.81162C11.5017 3.81162 18.2456 3.78665 18.2456 3.78665L15.1623 1.35575Z" fill="#1C274C"/>
<path d="M12.5 8L12.5 12Z" fill="#1C274C"/>
<path d="M12.5 8L12.5 12" stroke="#1C274C" stroke-width="1.5" stroke-linecap="round" stroke-linejoin="round"/>
</svg>
