<svg width="24" height="24" viewBox="0 0 24 24" fill="none" xmlns="http://www.w3.org/2000/svg">
<path d="M21.6 6.81842C21.983 6.81842 22.324 6.9977 22.5437 7.27684L22.5442 7.27269C23.4629 8.61839 24 10.245 24 11.9969C24 16.5357 20.3947 20.2331 15.8897 20.3852L15.6009 20.39L8.886 20.3893L10.4504 21.9529L10.5437 22.0575C10.9167 22.5282 10.8856 23.2139 10.4504 23.6488C10.0178 24.0811 9.33716 24.1143 8.86641 23.7485L8.75336 23.6488L5.14712 20.0451L5.05387 19.9405C4.71196 19.509 4.70959 18.8968 5.04675 18.4629L5.14712 18.3492L8.75336 14.7455L8.85803 14.6523C9.2898 14.3106 9.90239 14.3083 10.3367 14.6452L10.4504 14.7455L10.5437 14.8501C10.8856 15.2815 10.8879 15.8937 10.5508 16.3277L10.4504 16.4413L8.898 17.991L15.6009 17.9917C18.9141 17.9917 21.6 15.3077 21.6 11.9969C21.6 10.775 21.2342 9.6385 20.606 8.69078C20.4764 8.49937 20.4 8.2674 20.4 8.01758C20.4 7.35531 20.9373 6.81842 21.6 6.81842ZM15.1501 0.258043L15.2548 0.351225L18.861 3.95494C19.2962 4.38979 19.3273 5.07552 18.9543 5.54622L18.861 5.65081L15.2548 9.25452C14.7861 9.72282 14.0263 9.72282 13.5577 9.25452C13.1226 8.81967 13.0915 8.13394 13.4645 7.66325L13.5577 7.55866L15.114 6.00179L8.39906 6.00203C5.08587 6.00203 2.4 8.68602 2.4 11.9969C2.4 13.0984 2.6973 14.1306 3.21609 15.0176L3.3783 15.2792C3.51759 15.4742 3.6 15.7143 3.6 15.9737C3.6 16.636 3.06274 17.1729 2.4 17.1729C1.9992 17.1729 1.64429 16.9765 1.42636 16.6748C0.525995 15.3414 0 13.7305 0 11.9969C0 7.45803 3.60534 3.76067 8.11031 3.60858L8.39906 3.60372L15.1164 3.60347L13.5577 2.04709C13.1226 1.61224 13.0915 0.926508 13.4645 0.455817L13.5577 0.351225C13.9929 -0.0836252 14.6791 -0.114686 15.1501 0.258043Z" fill="#0F172A"/>
</svg>
