<svg width="24" height="24" viewBox="0 0 24 24" fill="none" xmlns="http://www.w3.org/2000/svg">
<path fill-rule="evenodd" clip-rule="evenodd" d="M9.44397 22.3731C9.47142 22.3997 9.49317 22.4319 9.50788 22.4674C9.52259 22.503 9.52994 22.5413 9.52947 22.5799C9.529 22.6185 9.52073 22.6566 9.50516 22.6918C9.48959 22.727 9.46707 22.7585 9.43899 22.7845L8.32708 23.8379C8.21208 23.9459 8.06013 24.004 7.90362 23.9998C7.7471 23.9955 7.59841 23.9293 7.48922 23.8152L2.6624 18.7325C2.43702 18.4952 2.43658 18.1121 2.6621 17.8759L7.51562 12.7937C7.74084 12.558 8.11827 12.5465 8.35728 12.7669L9.47975 13.8014C9.59999 13.9122 9.60189 14.0924 9.48268 14.2051L6.38728 17.1358C6.38728 17.1358 14.1641 17.155 16.902 17.1453C19.6399 17.1358 21.8049 14.6151 21.8049 11.9725C21.8049 10.897 20.987 9.34279 20.987 9.34279C20.914 9.1952 20.9469 8.97845 21.0578 8.86142L22.3203 7.5287C22.4323 7.41034 22.5801 7.43449 22.649 7.58296C22.649 7.58296 23.9998 10.3633 23.9998 11.8408C23.9998 16.0201 20.8084 19.426 16.8833 19.426C12.9582 19.426 6.48406 19.456 6.48406 19.456L9.44397 22.3731Z" fill="#0F172A"/>
<path fill-rule="evenodd" clip-rule="evenodd" d="M14.5558 1.6269C14.5284 1.60023 14.5067 1.56811 14.4919 1.53252C14.4772 1.49694 14.4699 1.45866 14.4704 1.42007C14.4708 1.38148 14.4791 1.3434 14.4947 1.30819C14.5102 1.27299 14.5328 1.24142 14.5608 1.21545L15.6727 0.162092C15.7877 0.0540693 15.9397 -0.00401671 16.0962 0.000216114C16.2527 0.00444893 16.4014 0.0706658 16.5106 0.184752L21.3374 5.26744C21.5628 5.50477 21.5632 5.88789 21.3377 6.12402L16.4842 11.2063C16.259 11.4419 15.8815 11.4534 15.6425 11.2331L14.5199 10.1985C14.3998 10.0878 14.3979 9.90752 14.517 9.79482L17.6125 6.86417C17.6125 6.86417 9.83577 6.84494 7.09786 6.85463C4.35995 6.86417 2.19493 9.38487 2.19493 12.0275C2.19493 13.1029 3.01284 14.6572 3.01284 14.6572C3.08587 14.8048 3.05287 15.0215 2.94202 15.1385L1.67952 16.4713C1.56749 16.5896 1.41969 16.5655 1.35077 16.417C1.35077 16.417 -2.02748e-07 13.6368 -1.80779e-07 12.1591C-1.18642e-07 7.97985 3.19144 4.57395 7.11648 4.57395C11.0417 4.57395 17.5158 4.54398 17.5158 4.54398L14.5558 1.6269Z" fill="#0F172A"/>
<path d="M10.8 11.4L12.6 9.59998L12.6 14.4" stroke="#0F172A" stroke-width="1.5" stroke-linecap="round" stroke-linejoin="round"/>
</svg>
