<svg width="24" height="24" viewBox="0 0 24 24" fill="none" xmlns="http://www.w3.org/2000/svg">
<path fill-rule="evenodd" clip-rule="evenodd" d="M10.0976 18.3432C5.37888 18.3432 1.55366 14.5846 1.55366 9.94063C1.55366 5.29667 5.37888 1.53051 10.0976 1.53051C14.8163 1.53051 18.6423 5.29667 18.6423 9.94063C18.6423 14.5846 14.8163 18.3432 10.0976 18.3432ZM23.7721 22.6946L17.5763 16.5952C19.1982 14.8322 20.1952 12.5064 20.1952 9.94063C20.1952 4.4489 15.6745 0 10.0976 0C4.52066 0 0 4.4489 0 9.94063C0 15.4248 4.52066 19.8737 10.0976 19.8737C12.5072 19.8737 14.7173 19.041 16.4533 17.6531L22.6739 23.7749C22.9777 24.075 23.4691 24.075 23.7721 23.7749C24.076 23.4823 24.076 22.9947 23.7721 22.6946Z" fill="white"/>
</svg>
