<svg width="31" height="28" viewBox="0 0 31 28" fill="none" xmlns="http://www.w3.org/2000/svg">
<path d="M25.7298 0.0783216C25.268 -0.165474 24.7314 0.186781 24.6866 0.762923C24.6526 1.20108 24.6183 1.75341 24.5951 2.39965C20.7562 2.85412 17.3585 5.22807 15.6033 8.77184L14.8647 10.2631L14.1261 8.77184C12.1676 4.81781 8.16435 2.32015 3.78521 2.32015H1.65163C0.739469 2.32015 0 3.06662 0 3.98747C0 4.90829 0.739469 5.65479 1.65163 5.65479H3.78521C6.91318 5.65479 9.77266 7.43884 11.1715 10.2631L13.0182 13.9913L11.1715 17.7196C9.77266 20.5439 6.91318 22.3279 3.78521 22.3279H1.65163C0.739469 22.3279 0 23.0745 0 23.9952C0 24.9161 0.739469 25.6626 1.65163 25.6626H3.78521C8.16435 25.6626 12.1676 23.1649 14.1261 19.2109L14.8647 17.7196L15.6033 19.2109C17.3587 22.7547 20.7566 25.1288 24.5955 25.5832C24.6206 26.279 24.6587 26.8654 24.6954 27.317C24.739 27.8571 25.2287 28.1559 25.6836 27.9166C26.2914 27.5966 27.1794 27.0963 28.2429 26.399C29.3074 25.7011 30.1336 25.0773 30.6814 24.6393C31.0908 24.312 31.1082 23.6819 30.7187 23.369C30.1686 22.9268 29.3257 22.2867 28.2441 21.5775C27.2138 20.9019 26.3398 20.4082 25.7298 20.0862C25.268 19.8424 24.7314 20.1946 24.6866 20.7708C24.6561 21.1653 24.625 21.6525 24.6022 22.2174C22.0166 21.788 19.7537 20.1339 18.5579 17.7196L16.7112 13.9913L18.5579 10.2631C19.7537 7.84876 22.0169 6.19458 24.6027 5.76526C24.6277 6.3783 24.6622 6.89927 24.6954 7.30915C24.739 7.84931 25.2287 8.1481 25.6836 7.90874C26.2914 7.58888 27.1794 7.08846 28.2429 6.39112C29.3074 5.69319 30.1336 5.06946 30.6814 4.63152C31.0908 4.30419 31.1082 3.67415 30.7187 3.36117C30.1686 2.91892 29.3257 2.27883 28.2441 1.56964C27.2138 0.894057 26.3398 0.400298 25.7298 0.0783216Z" fill="#0F172A"/>
</svg>
