<svg width="24" height="20" viewBox="0 0 24 20" fill="none" xmlns="http://www.w3.org/2000/svg">
<path d="M19.9198 0.055944C19.5623 -0.118196 19.1469 0.133415 19.1122 0.544945C19.0859 0.857912 19.0593 1.25244 19.0414 1.71403C16.0693 2.03866 13.4388 3.73434 12.08 6.2656L11.5082 7.33081L10.9363 6.2656C9.42006 3.44129 6.32079 1.65725 2.93049 1.65725H1.27868C0.572492 1.65725 0 2.19045 0 2.84819C0 3.50592 0.572492 4.03913 1.27868 4.03913H2.93049C5.35214 4.03913 7.56593 5.31345 8.64893 7.33081L10.0786 9.9938L8.64893 12.6569C7.56593 14.6742 5.35214 15.9485 2.93049 15.9485H1.27868C0.572492 15.9485 0 16.4818 0 17.1394C0 17.7972 0.572492 18.3304 1.27868 18.3304H2.93049C6.32079 18.3304 9.42006 16.5464 10.9363 13.722L11.5082 12.6569L12.08 13.722C13.439 16.2534 16.0696 17.9492 19.0416 18.2737C19.0611 18.7707 19.0906 19.1895 19.119 19.5122C19.1528 19.8979 19.5319 20.1113 19.884 19.9404C20.3546 19.7119 21.0421 19.3545 21.8655 18.8564C22.6896 18.3579 23.3292 17.9124 23.7533 17.5995C24.0703 17.3657 24.0838 16.9157 23.7822 16.6921C23.3563 16.3763 22.7038 15.9191 21.8664 15.4125C21.0687 14.9299 20.3921 14.5773 19.9198 14.3473C19.5623 14.1732 19.1469 14.4247 19.1122 14.8363C19.0886 15.1181 19.0645 15.4661 19.0469 15.8695C17.0451 15.5629 15.2932 14.3813 14.3674 12.6569L12.9377 9.9938L14.3674 7.33081C15.2932 5.60626 17.0454 4.4247 19.0473 4.11804C19.0666 4.55593 19.0933 4.92805 19.119 5.22082C19.1528 5.60665 19.5319 5.82007 19.884 5.6491C20.3546 5.42063 21.0421 5.06319 21.8655 4.56509C22.6896 4.06656 23.3292 3.62104 23.7533 3.30823C24.0703 3.07442 24.0838 2.62439 23.7822 2.40084C23.3563 2.08494 22.7038 1.62774 21.8664 1.12117C21.0687 0.638612 20.3921 0.285927 19.9198 0.055944Z" fill="#0F172A"/>
</svg>
