<svg width="24" height="24" viewBox="0 0 24 24" fill="none" xmlns="http://www.w3.org/2000/svg">
<path d="M19.9198 0.0671328C19.5623 -0.141835 19.1469 0.160098 19.1122 0.653934C19.0859 1.02949 19.0593 1.50292 19.0414 2.05684C16.0693 2.44639 13.4388 4.4812 12.08 7.51872L11.5082 8.79698L10.9363 7.51872C9.42006 4.12955 6.32079 1.9887 2.93049 1.9887H1.27868C0.572492 1.9887 0 2.62853 0 3.41783C0 4.20711 0.572492 4.84696 1.27868 4.84696H2.93049C5.35214 4.84696 7.56593 6.37614 8.64893 8.79698L10.0786 11.9926L8.64893 15.1882C7.56593 17.609 5.35214 19.1382 2.93049 19.1382H1.27868C0.572492 19.1382 0 19.7782 0 20.5673C0 21.3566 0.572492 21.9965 1.27868 21.9965H2.93049C6.32079 21.9965 9.42006 19.8556 10.9363 16.4664L11.5082 15.1882L12.08 16.4664C13.439 19.5041 16.0696 21.539 19.0416 21.9284C19.0611 22.5248 19.0906 23.0274 19.119 23.4146C19.1528 23.8775 19.5319 24.1336 19.884 23.9285C20.3546 23.6543 21.0421 23.2254 21.8655 22.6277C22.6896 22.0295 23.3292 21.4948 23.7533 21.1194C24.0703 20.8389 24.0838 20.2988 23.7822 20.0306C23.3563 19.6516 22.7038 19.1029 21.8664 18.495C21.0687 17.9159 20.3921 17.4927 19.9198 17.2167C19.5623 17.0078 19.1469 17.3096 19.1122 17.8035C19.0886 18.1417 19.0645 18.5593 19.0469 19.0435C17.0451 18.6755 15.2932 17.2576 14.3674 15.1882L12.9377 11.9926L14.3674 8.79698C15.2932 6.72751 17.0454 5.30964 19.0473 4.94165C19.0666 5.46712 19.0933 5.91366 19.119 6.26499C19.1528 6.72798 19.5319 6.98408 19.884 6.77891C20.3546 6.50475 21.0421 6.07583 21.8655 5.47811C22.6896 4.87987 23.3292 4.34525 23.7533 3.96987C24.0703 3.68931 24.0838 3.14927 23.7822 2.88101C23.3563 2.50193 22.7038 1.95328 21.8664 1.3454C21.0687 0.766335 20.3921 0.343112 19.9198 0.0671328Z" fill="#0F172A"/>
</svg>
