<svg width="120" height="121" viewBox="0 0 120 121" fill="none" xmlns="http://www.w3.org/2000/svg">
<path d="M60 120C93.1371 120 120 93.1371 120 60C120 26.8629 93.1371 0 60 0C26.8629 0 0 26.8629 0 60C0 93.1371 26.8629 120 60 120Z" fill="#F2BC0F"/>
<path opacity="0.3" d="M60 108C86.5097 108 108 86.5097 108 60C108 33.4903 86.5097 12 60 12C33.4903 12 12 33.4903 12 60C12 86.5097 33.4903 108 60 108Z" fill="white"/>
<path d="M60 120.1C74.7626 120.12 89.0107 114.678 100 104.82L97.61 99.14C95.9 95.14 91.39 92.5 86.32 92.5H33.69C28.62 92.5 24.11 95.16 22.4 99.14L20 104.82C30.9893 114.678 45.2374 120.12 60 120.1Z" fill="#515570"/>
<path d="M91.2499 56.43C91.2499 60.81 91.6999 64.36 87.3199 64.36C85.2167 64.36 83.1997 63.5245 81.7125 62.0374C80.2254 60.5502 79.3899 58.5332 79.3899 56.43C79.3899 54.3268 80.2254 52.3098 81.7125 50.8226C83.1997 49.3355 85.2167 48.5 87.3199 48.5C91.6999 48.5 91.2499 52.05 91.2499 56.43Z" fill="#393C54"/>
<path d="M40.6099 56.43C40.6099 57.4714 40.4048 58.5026 40.0063 59.4647C39.6077 60.4268 39.0236 61.301 38.2872 62.0374C37.5509 62.7737 36.6767 63.3578 35.7146 63.7564C34.7525 64.1549 33.7213 64.36 32.6799 64.36C28.2999 64.36 28.7499 60.81 28.7499 56.43C28.7499 52.05 28.2999 48.5 32.6799 48.5C34.7831 48.5 36.8001 49.3355 38.2872 50.8226C39.7744 52.3098 40.6099 54.3268 40.6099 56.43Z" fill="#393C54"/>
<path d="M60.0002 91.37C56.2808 91.3713 52.5976 90.6397 49.161 89.2169C45.7245 87.7942 42.602 85.7082 39.972 83.0782C37.342 80.4482 35.256 77.3257 33.8332 73.8891C32.4105 70.4526 31.6789 66.7694 31.6802 63.05V48.43C31.6802 32.79 44.3602 23.11 60.0002 23.11C75.6402 23.11 88.3202 32.79 88.3202 48.43V63.05C88.3215 66.7694 87.5899 70.4526 86.1671 73.8891C84.7444 77.3257 82.6584 80.4482 80.0284 83.0782C77.3984 85.7082 74.2759 87.7942 70.8393 89.2169C67.4028 90.6397 63.7196 91.3713 60.0002 91.37Z" fill="#FFD8C9"/>
<path d="M52.41 78.07C52.3872 77.9435 52.3914 77.8137 52.4223 77.6889C52.4533 77.5642 52.5104 77.4475 52.5897 77.3464C52.6691 77.2453 52.7689 77.1622 52.8828 77.1025C52.9966 77.0428 53.1217 77.0078 53.25 77H66.75C66.8783 77.0078 67.0034 77.0428 67.1172 77.1025C67.231 77.1622 67.3309 77.2453 67.4103 77.3464C67.4896 77.4475 67.5467 77.5642 67.5776 77.6889C67.6086 77.8137 67.6128 77.9435 67.59 78.07" stroke="#393C54" stroke-width="2" stroke-linecap="round" stroke-linejoin="round"/>
<path opacity="0.1" d="M86.9099 63C83.6415 63.3748 80.6269 64.9441 78.4451 67.4063C76.2634 69.8686 75.0685 73.0503 75.0899 76.34V80.83" stroke="#515570" stroke-width="2" stroke-linecap="round" stroke-linejoin="round"/>
<path opacity="0.1" d="M33.0898 63C36.3582 63.3748 39.3729 64.9441 41.5546 67.4063C43.7363 69.8686 44.9313 73.0503 44.9098 76.34V80.83" stroke="#515570" stroke-width="2" stroke-linecap="round" stroke-linejoin="round"/>
<path d="M31 63.5299L58.68 69.75C59.5464 69.9399 60.4436 69.9399 61.31 69.75L89 63.5299V18.7C89 18.5142 88.9483 18.3322 88.8507 18.1742C88.753 18.0162 88.6133 17.8886 88.4472 17.8055C88.2811 17.7225 88.0952 17.6873 87.9102 17.704C87.7252 17.7207 87.5486 17.7885 87.4 17.9L77.4 25.35C77.4 25.35 71.28 19.55 60.01 19.55C53.4057 19.4853 46.9936 21.7715 41.92 26L32.65 18.1C32.5047 17.9757 32.3269 17.8957 32.1375 17.8694C31.9482 17.8431 31.7553 17.8716 31.5816 17.9516C31.408 18.0316 31.2609 18.1596 31.1579 18.3206C31.0548 18.4816 31 18.6688 31 18.86V63.5299Z" fill="#393C54"/>
<path d="M42.13 53.75L51.88 56C51.7478 56.6531 51.4863 57.2731 51.1111 57.8237C50.7358 58.3743 50.2542 58.8444 49.6947 59.2062C49.1352 59.5681 48.509 59.8144 47.8529 59.9308C47.1968 60.0472 46.524 60.0313 45.8742 59.884C45.2243 59.7367 44.6105 59.461 44.0687 59.0731C43.5269 58.6852 43.0682 58.1929 42.7193 57.6251C42.3705 57.0574 42.1387 56.4257 42.0375 55.7671C41.9363 55.1085 41.9678 54.4363 42.13 53.79V53.75Z" fill="white"/>
<path d="M47 57.7401C48.5022 57.7401 49.72 56.5223 49.72 55.0201C49.72 53.5178 48.5022 52.3 47 52.3C45.4978 52.3 44.28 53.5178 44.28 55.0201C44.28 56.5223 45.4978 57.7401 47 57.7401Z" fill="#393C54"/>
<path opacity="0.4" d="M52.3599 56.07L41.6399 53.63" stroke="#515570" stroke-width="2" stroke-linecap="round" stroke-linejoin="round"/>
<path d="M52.3599 55.07L41.6399 52.63" stroke="#515570" stroke-width="2" stroke-linecap="round" stroke-linejoin="round"/>
<path d="M74.0001 107.82C74.0946 107.764 74.1681 107.678 74.209 107.576C74.25 107.474 74.2561 107.361 74.2265 107.255C74.1969 107.149 74.1332 107.056 74.0452 106.99C73.9573 106.924 73.85 106.889 73.74 106.89H65.6501C65.5113 106.889 65.3754 106.93 65.2597 107.006C65.1439 107.083 65.0536 107.192 65.0001 107.32C64.8022 107.8 64.4887 108.224 64.0874 108.554C63.6861 108.884 63.2095 109.109 62.7 109.21L61.7 109.42C61.6527 109.43 61.6038 109.431 61.5563 109.421C61.5087 109.412 61.4635 109.394 61.4234 109.366C61.3832 109.339 61.349 109.305 61.3226 109.264C61.2963 109.223 61.2784 109.178 61.27 109.13L61.0001 107.72C60.9944 107.705 60.9841 107.692 60.9707 107.682C60.9573 107.673 60.9414 107.668 60.9251 107.668C60.9087 107.668 60.8928 107.673 60.8794 107.682C60.866 107.692 60.8557 107.705 60.85 107.72L60.5701 108.38C60.2212 108.3 59.8589 108.3 59.51 108.38L59.2301 107.72C59.2244 107.705 59.2141 107.692 59.2007 107.682C59.1873 107.673 59.1714 107.668 59.155 107.668C59.1387 107.668 59.1228 107.673 59.1094 107.682C59.096 107.692 59.0857 107.705 59.0801 107.72L58.8101 109.13C58.8017 109.178 58.7838 109.223 58.7575 109.264C58.7311 109.305 58.6969 109.339 58.6567 109.366C58.6166 109.394 58.5714 109.412 58.5238 109.421C58.4763 109.431 58.4274 109.43 58.3801 109.42L57.3801 109.21C56.8706 109.109 56.394 108.884 55.9927 108.554C55.5914 108.224 55.2779 107.8 55.0801 107.32C55.0265 107.192 54.9362 107.083 54.8204 107.006C54.7047 106.93 54.5688 106.889 54.4301 106.89H46.2901C46.1801 106.889 46.0728 106.924 45.9849 106.99C45.8969 107.056 45.8332 107.149 45.8036 107.255C45.774 107.361 45.7801 107.474 45.8211 107.576C45.862 107.678 45.9355 107.764 46.03 107.82C46.8674 108.299 47.5687 108.984 48.0674 109.81C48.5661 110.636 48.8458 111.576 48.8801 112.54C48.8793 112.611 48.8939 112.681 48.9228 112.745C48.9517 112.81 48.9942 112.867 49.0474 112.914C49.1006 112.96 49.1632 112.995 49.231 113.015C49.2988 113.035 49.3701 113.04 49.44 113.03C51.413 112.739 53.4262 112.896 55.3301 113.49C57.0625 114.169 58.548 115.358 59.5901 116.9C59.6361 116.966 59.6975 117.02 59.7688 117.057C59.8402 117.094 59.9195 117.114 60.0001 117.114C60.0806 117.114 60.1599 117.094 60.2313 117.057C60.3026 117.02 60.364 116.966 60.4101 116.9C61.4521 115.358 62.9376 114.169 64.67 113.49C66.5739 112.896 68.5871 112.739 70.56 113.03C70.63 113.04 70.7013 113.035 70.7691 113.015C70.8369 112.995 70.8995 112.96 70.9527 112.914C71.0059 112.867 71.0484 112.81 71.0773 112.745C71.1062 112.681 71.1208 112.611 71.1201 112.54C71.1573 111.573 71.4416 110.631 71.9457 109.805C72.4498 108.979 73.1571 108.296 74.0001 107.82Z" fill="#F8DC25"/>
<path d="M77.8701 53.75L68.1201 56C68.2524 56.6531 68.5138 57.2731 68.8891 57.8237C69.2644 58.3743 69.7459 58.8444 70.3055 59.2062C70.865 59.5681 71.4912 59.8144 72.1473 59.9308C72.8034 60.0472 73.4761 60.0313 74.126 59.884C74.7758 59.7367 75.3897 59.461 75.9314 59.0731C76.4732 58.6852 76.932 58.1929 77.2808 57.6251C77.6296 57.0574 77.8615 56.4257 77.9627 55.7671C78.0639 55.1085 78.0324 54.4363 77.8701 53.79V53.75Z" fill="white"/>
<path d="M73.0599 57.64C74.5124 57.64 75.6899 56.4625 75.6899 55.01C75.6899 53.5575 74.5124 52.38 73.0599 52.38C71.6074 52.38 70.4299 53.5575 70.4299 55.01C70.4299 56.4625 71.6074 57.64 73.0599 57.64Z" fill="#393C54"/>
<path opacity="0.4" d="M67.6399 56.07L78.3599 53.63" stroke="#515570" stroke-width="2" stroke-linecap="round" stroke-linejoin="round"/>
<path d="M67.6399 55.07L78.3599 52.63" stroke="#515570" stroke-width="2" stroke-linecap="round" stroke-linejoin="round"/>
<path d="M89 92.5V63L84 64.36L81.25 76.65C80.7785 78.7588 79.8794 80.7486 78.6083 82.4961C77.3372 84.2436 75.7211 85.7119 73.86 86.81L71.72 87.74C68.024 89.3557 64.0338 90.1898 60 90.1898C55.9663 90.1898 51.9761 89.3557 48.28 87.74L46.14 86.81C44.2789 85.7119 42.6629 84.2436 41.3918 82.4961C40.1207 80.7486 39.2216 78.7588 38.75 76.65L36 64.36L31 63V92.5L14.54 99.14L15.91 100.69C20.8264 106.027 26.667 110.431 33.15 113.69L52.5 100.69C54.7416 99.2631 57.3429 98.5035 60 98.5C62.6085 98.4972 65.18 99.1177 67.5 100.31L86.87 113.65C93.2434 110.447 98.999 106.141 103.87 100.93C104.43 100.32 104.97 99.72 105.48 99.14L89 92.5Z" fill="#393C54"/>
<path d="M56 85.9999C57.1738 85.1826 58.5697 84.7445 60 84.7445C61.4303 84.7445 62.8262 85.1826 64 85.9999" stroke="#FBC0AA" stroke-width="2" stroke-linecap="round" stroke-linejoin="round"/>
<path d="M59.9999 59.12V67.33C59.999 67.4067 59.9809 67.4822 59.9468 67.5509C59.9127 67.6196 59.8636 67.6798 59.803 67.7269C59.7425 67.774 59.6721 67.8068 59.5971 67.8229C59.5221 67.839 59.4444 67.838 59.3699 67.82L55.7499 66.82C55.6795 66.7985 55.6146 66.762 55.5596 66.713C55.5047 66.664 55.461 66.6038 55.4315 66.5363C55.4021 66.4688 55.3876 66.3958 55.389 66.3222C55.3905 66.2486 55.4078 66.1762 55.4399 66.11L59.0499 58.88C59.0999 58.7761 59.1842 58.6927 59.2886 58.6439C59.3931 58.595 59.5111 58.5838 59.6229 58.612C59.7347 58.6403 59.8332 58.7062 59.9019 58.7988C59.9706 58.8914 60.0052 59.0048 59.9999 59.12Z" fill="#515570"/>
</svg>
